<svg width="24" height="24" viewBox="0 0 24 24" fill="none" xmlns="http://www.w3.org/2000/svg">
<circle cx="12" cy="12" r="12" fill="#F3BA2F"/>
<path d="M9.28115 10.8829L11.9999 8.16421L14.7201 10.8844L16.3021 9.30236L11.9999 5L7.69917 9.30092L9.28115 10.8829Z" fill="white"/>
<path d="M8.16397 11.9997L6.58202 10.4178L5 11.9998L6.58194 13.5818L8.16397 11.9997Z" fill="white"/>
<path d="M9.28115 13.1171L11.9999 15.8358L14.72 13.1158L16.3029 14.6969L16.3021 14.6978L11.9999 19L7.69685 14.697L9.28115 13.1171Z" fill="white"/>
<path d="M17.418 13.5826L19 12.0005L17.4181 10.4185L15.836 12.0006L17.418 13.5826Z" fill="white"/>
<path d="M13.6046 11.9992H13.6052L11.9999 10.3938L10.3938 11.9999L10.3961 12.0023L11.9999 13.6062L13.6052 12.0008L13.606 11.9999L13.6046 11.9992Z" fill="white"/>
</svg>
