<svg width="20" height="20" viewBox="0 0 20 20" fill="none" xmlns="http://www.w3.org/2000/svg">
<path d="M4.16667 12.5001H3.33334C2.89131 12.5001 2.46739 12.3245 2.15483 12.0119C1.84227 11.6994 1.66667 11.2754 1.66667 10.8334V3.33341C1.66667 2.89139 1.84227 2.46746 2.15483 2.1549C2.46739 1.84234 2.89131 1.66675 3.33334 1.66675H10.8333C11.2754 1.66675 11.6993 1.84234 12.0118 2.1549C12.3244 2.46746 12.5 2.89139 12.5 3.33341V4.16675M9.16667 7.50008H16.6667C17.5871 7.50008 18.3333 8.24627 18.3333 9.16675V16.6667C18.3333 17.5872 17.5871 18.3334 16.6667 18.3334H9.16667C8.2462 18.3334 7.50001 17.5872 7.50001 16.6667V9.16675C7.50001 8.24627 8.2462 7.50008 9.16667 7.50008Z" stroke="#1FA5FF" stroke-width="2" stroke-linecap="round" stroke-linejoin="round"/>
</svg>
