<svg width="64" height="19" viewBox="0 0 64 19" fill="none" xmlns="http://www.w3.org/2000/svg">
<path d="M26.997 7.3419H25.941L24.082 13.8439H26.1417L27.7127 8.3543C27.8 8.11865 27.7651 7.8481 27.6167 7.63864C27.477 7.44663 27.2414 7.33317 26.997 7.3419Z" fill="#433F3F"/>
<path d="M28.4385 5.8844C28.2552 6.46915 27.7228 6.87934 27.1119 6.91425C26.693 6.93171 26.3439 6.61752 26.3264 6.1986C26.3177 6.09386 26.3351 5.98041 26.3788 5.8844C26.562 5.29966 27.0944 4.88946 27.7054 4.85455C27.9584 4.8371 28.2028 4.95928 28.3599 5.16875C28.4297 5.27348 28.4821 5.39566 28.4908 5.51785C28.4996 5.64003 28.4821 5.76222 28.4385 5.8844Z" fill="#433F3F"/>
<path d="M36.8605 6.99281C36.4503 6.99281 36.0488 7.07135 35.6735 7.21972C35.4902 7.29827 35.3244 7.403 35.1586 7.51646L35.6299 5.85823C35.7084 5.62258 35.6823 5.35203 35.5339 5.1513C35.4641 5.05529 35.3681 4.97674 35.2633 4.92438C35.1586 4.87201 35.0364 4.84583 34.9142 4.85456H33.9018L31.3359 13.8439H33.3433L34.3295 10.3878C34.4342 9.93399 34.6611 9.52379 34.984 9.19215C35.2284 8.93905 35.5688 8.79068 35.9179 8.79941C36.1972 8.77322 36.4677 8.93032 36.5812 9.19215C36.7034 9.58488 36.6859 10.0038 36.5463 10.3878L35.5688 13.8352H37.6023L38.5711 10.4576C38.8678 9.64598 38.8591 8.75577 38.5449 7.96156C38.2307 7.32445 37.5674 6.94917 36.8605 6.99281Z" fill="#433F3F"/>
<path d="M55.1646 6.97533C54.2132 6.95788 53.2794 7.22843 52.4852 7.75208C52.1361 7.22843 51.5426 6.94042 50.9142 6.98406C50.504 6.98406 50.1026 7.06261 49.7273 7.21098C49.5091 7.30698 49.2996 7.43789 49.1076 7.58626C49.0553 7.21971 48.7236 6.95788 48.3571 6.98406H47.3534L45.3984 13.8352H47.4058L48.4007 10.3703C48.5054 9.91651 48.7324 9.50632 49.0553 9.17468C49.1775 9.05249 49.3171 8.94776 49.4829 8.87794C49.64 8.80812 49.8146 8.77321 49.9891 8.78194C50.1288 8.76448 50.2684 8.79939 50.3819 8.86921C50.4953 8.93903 50.5913 9.05249 50.6437 9.17468C50.7659 9.56741 50.7484 9.98634 50.6088 10.3703L49.6226 13.8352H51.6561L52.651 10.3703C52.7558 9.92524 52.9827 9.50632 53.3056 9.17468C53.55 8.92158 53.8903 8.77321 54.2394 8.78194C54.5274 8.75575 54.7893 8.91285 54.9027 9.17468C55.0249 9.56741 55.0075 9.98634 54.8678 10.3703L53.8729 13.8352H55.9064L56.8752 10.4402C57.1719 9.62851 57.1632 8.7383 56.849 7.94409C56.5435 7.30698 55.8715 6.92297 55.1646 6.97533Z" fill="#433F3F"/>
<path d="M39.1489 10.8853L40.266 6.97531H42.2995L41.1824 10.8853C40.8508 12.0373 41.933 12.0373 41.933 12.0373C42.6224 12.0286 43.2159 11.5573 43.3905 10.8853L44.5076 6.97531H46.5149L45.3978 10.8853C44.9003 12.6657 43.2595 13.8788 41.418 13.8352C41.418 13.8352 38.2499 14.0446 39.1489 10.8853Z" fill="#433F3F"/>
<path d="M63.7828 10.4489C64.0795 9.63725 64.0708 8.74704 63.7566 7.95284C63.4424 7.31573 62.7791 6.94044 62.0809 6.99281C61.6707 6.98408 61.2692 7.06263 60.894 7.21972C60.7107 7.29827 60.5449 7.39427 60.379 7.51646L60.8503 5.86695C60.9289 5.63131 60.9027 5.36949 60.7543 5.16002C60.6845 5.06402 60.5885 4.98547 60.475 4.93311C60.3703 4.88074 60.2481 4.85456 60.1259 4.86329H59.1223L57.4204 10.8329C56.4866 14.097 59.7856 13.8527 59.7856 13.8527C59.7856 13.8527 62.7966 13.905 63.7828 10.4489ZM61.7667 10.3791C61.6533 10.8504 61.4263 11.2868 61.0947 11.6446C60.9725 11.7755 60.8329 11.8715 60.6671 11.9413C60.51 12.0111 60.3354 12.0461 60.1609 12.0373C59.8728 12.0722 59.5936 11.9064 59.4801 11.6359C59.3666 11.2169 59.4016 10.7718 59.5587 10.3704C59.6634 9.91653 59.8903 9.50634 60.2132 9.17469C60.4576 8.92159 60.798 8.77323 61.1471 8.78195C61.4263 8.75577 61.6969 8.91287 61.8104 9.17469C61.9238 9.57616 61.9151 9.99508 61.7667 10.3791Z" fill="#433F3F"/>
<path d="M31.4426 5.8582C31.4863 5.74474 31.495 5.61383 31.4775 5.49164C31.4601 5.36946 31.4165 5.24727 31.3466 5.14254C31.207 4.95054 30.9801 4.83708 30.7444 4.84581H29.6971L27.5327 12.4388C27.236 13.4861 27.7509 13.7479 28.2396 13.7915C28.5887 13.8177 28.9989 13.8352 29.4004 13.8352C29.6622 13.8352 29.9153 13.8264 30.1248 13.8177L30.3342 13.809L30.7968 12.1857H29.8891C29.6448 12.1857 29.6709 12.0984 29.6884 12.0111L30.6222 8.72956H30.8753C31.1633 8.72083 31.4339 8.62483 31.6608 8.45028C31.9052 8.27573 32.0797 8.0139 32.167 7.72589L32.3241 7.18479H31.0673L31.4426 5.8582Z" fill="#433F3F"/>
<path d="M24.3375 10.4489C24.6342 9.63725 24.6255 8.74704 24.3113 7.95284C23.9971 7.32445 23.3338 6.94044 22.6356 6.99281C22.2254 6.98408 21.8239 7.06263 21.4487 7.21972C21.2654 7.29827 21.0996 7.39427 20.9337 7.51646L21.405 5.86695C21.4836 5.63131 21.4574 5.36949 21.309 5.16002C21.2392 5.06402 21.1432 4.98547 21.0385 4.93311C20.9337 4.88074 20.8115 4.85456 20.6894 4.86329H19.677L17.9751 10.8329C17.0412 14.097 20.3403 13.8527 20.3403 13.8527C20.3403 13.8527 23.3425 13.905 24.3375 10.4489ZM22.3214 10.3791C22.2079 10.8504 21.981 11.2868 21.6494 11.6446C21.405 11.8977 21.0646 12.0461 20.7155 12.0373C20.4275 12.0722 20.1482 11.9064 20.0261 11.6359C19.9126 11.2169 19.9475 10.7718 20.1046 10.3704C20.2093 9.91653 20.4363 9.50634 20.7592 9.17469C21.0035 8.92159 21.3439 8.77323 21.693 8.78195C21.9723 8.75577 22.2429 8.91287 22.3563 9.17469C22.4785 9.57616 22.4698 9.99508 22.3214 10.3791Z" fill="#433F3F"/>
<path d="M0.117159 7.51646C-0.197033 8.24085 0.143341 9.08742 0.867727 9.39288C1.06846 9.48016 1.28665 9.51507 1.51357 9.50634H2.01976L3.45981 4.47055H0.99864L0.117159 7.51646Z" fill="#D62817"/>
<path d="M13.7136 6.41678C13.0503 5.0902 11.8895 4.45309 10.2487 4.45309H7.19409L5.76277 9.51506H7.93593C8.28503 9.46269 8.6254 9.64597 8.76504 9.96889C8.92214 10.4576 8.90468 10.99 8.72141 11.4788C8.58177 12.0722 8.29376 12.6221 7.88356 13.0759C7.5781 13.3988 7.15918 13.5821 6.71407 13.5734C6.34752 13.617 5.99841 13.4075 5.85877 13.0672C5.71913 12.5435 5.75404 11.985 5.95478 11.4788L8.61668 2.08792C8.79123 1.59045 8.72141 1.04935 8.42467 0.612969C8.12793 0.202775 7.63919 -0.0241414 7.13299 0.00204118H4.17436L0.665887 12.369C-1.25417 19.1328 5.54458 18.6353 5.54458 18.6353C5.54458 18.6353 11.7324 18.775 13.7747 11.6009C14.3681 9.48888 14.3507 7.74337 13.7136 6.41678Z" fill="#EC7000"/>
<path d="M13.773 11.5747C14.3752 9.48013 14.3578 7.74335 13.7119 6.42549C13.0486 5.10763 11.8879 4.47925 10.2471 4.47925H7.94304L6.51172 9.51504H7.92558C8.27468 9.46267 8.61506 9.64595 8.7547 9.96014C8.91179 10.4489 8.89434 10.9725 8.71106 11.4526" fill="url(#paint0_linear_15294_18906)"/>
<defs>
<linearGradient id="paint0_linear_15294_18906" x1="11.112" y1="9.5624" x2="9.40922" y2="6.81759" gradientUnits="userSpaceOnUse">
<stop stop-color="#D62616" stop-opacity="0"/>
<stop offset="1" stop-color="#D62616"/>
</linearGradient>
</defs>
</svg>
