<svg width="53" height="12" viewBox="0 0 53 12" fill="none" xmlns="http://www.w3.org/2000/svg">
<path d="M41.6459 5.9941C41.6459 5.68805 41.6459 5.40016 41.6361 5.13429C41.6294 4.88347 41.6046 4.63346 41.5621 4.38622C41.5223 4.16045 41.4521 3.94118 41.3533 3.73447C41.2491 3.52135 41.1097 3.32743 40.9412 3.16089C40.7022 2.91491 40.4178 2.71803 40.1038 2.58126C39.7642 2.44308 39.4005 2.37458 39.0341 2.37979C38.6664 2.37502 38.3013 2.44349 37.96 2.58126C37.6443 2.71617 37.3581 2.91219 37.1177 3.15814C36.9495 3.32458 36.8107 3.51854 36.7073 3.73172C36.6093 3.93847 36.5402 4.15778 36.5018 4.38346C36.4602 4.63078 36.4364 4.88078 36.4305 5.13154C36.4239 5.39741 36.4206 5.6853 36.4223 5.99135C36.4239 6.29741 36.4223 6.5831 36.4305 6.85062C36.4364 7.10137 36.4602 7.35137 36.5018 7.59869C36.5402 7.82438 36.6093 8.04368 36.7073 8.25043C36.8111 8.46337 36.9499 8.65727 37.1177 8.82401C37.3577 9.07017 37.644 9.26589 37.96 9.39979C38.3011 9.53846 38.6662 9.60733 39.0341 9.60236C39.4006 9.60779 39.7645 9.53889 40.1038 9.39979C40.4178 9.26484 40.7023 9.0692 40.9412 8.82401C41.1094 8.65716 41.2486 8.46331 41.3533 8.25043C41.4521 8.04373 41.5223 7.82446 41.5621 7.59869C41.6042 7.35215 41.6285 7.10288 41.635 6.85282C41.6432 6.5853 41.647 6.29906 41.6448 5.99355L41.6459 5.9941ZM40.265 5.9941C40.265 6.33319 40.26 6.61557 40.2485 6.84016C40.242 7.02464 40.2237 7.20851 40.1937 7.39062C40.1732 7.51195 40.1363 7.62991 40.0841 7.74126C40.0417 7.83101 39.9863 7.91393 39.9197 7.98732C39.8168 8.1056 39.6892 8.19959 39.546 8.26255C39.3848 8.33183 39.2111 8.36706 39.0358 8.36605C38.8596 8.36681 38.6851 8.3316 38.5228 8.26255C38.3761 8.20076 38.245 8.10671 38.1392 7.98732C38.0722 7.91426 38.0167 7.83127 37.9748 7.74126C37.9241 7.6298 37.889 7.51178 37.8707 7.39062C37.8414 7.2084 37.8231 7.02459 37.8159 6.84016C37.806 6.61557 37.8011 6.33355 37.8011 5.9941C37.8011 5.65502 37.806 5.37209 37.8159 5.1475C37.8232 4.96308 37.8415 4.77926 37.8707 4.59704C37.889 4.47588 37.9241 4.35786 37.9748 4.2464C38.0168 4.15646 38.0723 4.07349 38.1392 4.00034C38.2451 3.88112 38.3762 3.7871 38.5228 3.72511C38.6848 3.65527 38.8595 3.62003 39.0358 3.62163C39.2112 3.6198 39.385 3.65506 39.546 3.72511C39.6891 3.78826 39.8167 3.88222 39.9197 4.00034C39.9862 4.07382 40.0416 4.15673 40.0841 4.2464C40.1363 4.35775 40.1732 4.47571 40.1937 4.59704C40.2237 4.77916 40.242 4.96302 40.2485 5.1475C40.2606 5.37154 40.265 5.65447 40.265 5.9941Z" fill="#23AF91"/>
<path d="M52.6521 2.56367C52.6515 2.49673 52.5976 2.44261 52.531 2.44202H51.3917C51.3249 2.44232 51.2709 2.49661 51.2706 2.56367V6.79119L48.4921 2.47614C48.4735 2.44697 48.4571 2.44202 48.416 2.44202H47.3594C47.2929 2.44291 47.2392 2.49685 47.2383 2.56367V9.42348C47.2392 9.49021 47.293 9.54399 47.3594 9.54458H48.4982C48.5646 9.54428 48.6184 9.49024 48.6187 9.42348V5.18495L51.3977 9.5099C51.4169 9.53908 51.4322 9.54403 51.4739 9.54403H52.5299C52.5964 9.54374 52.6504 9.48978 52.651 9.42293L52.6521 2.56367Z" fill="#23AF91"/>
<path d="M45.0172 2.56367C45.0169 2.49661 44.9628 2.44232 44.896 2.44202H43.7578C43.6911 2.44232 43.637 2.49661 43.6367 2.56367V9.42293C43.637 9.48999 43.6911 9.54428 43.7578 9.54458H44.896C44.9628 9.54428 45.0169 9.48999 45.0172 9.42293V2.56367Z" fill="#23AF91"/>
<path d="M31.3877 5.99421C31.3877 5.65293 31.3916 5.36889 31.4014 5.14265C31.4081 4.95819 31.4264 4.77434 31.4562 4.5922C31.5614 3.98119 32.0273 3.62064 32.6219 3.62064C33.0098 3.62394 33.3617 3.76816 33.5864 4.09623C33.6881 4.2494 33.7623 4.41932 33.8056 4.59825C33.8089 4.6171 33.826 4.63025 33.845 4.62853H35.1849C35.2041 4.62853 35.2112 4.61531 35.2079 4.5966C35.0616 3.76376 34.6194 3.01568 33.8379 2.64522C33.4538 2.46661 33.0346 2.37724 32.6114 2.38376C31.857 2.38376 31.2215 2.64321 30.7049 3.1621C30.41 3.45083 30.2087 3.82226 30.1273 4.22779C30.0484 4.62706 30.0086 5.21568 30.0078 5.99366C30.0071 6.77165 30.0469 7.36009 30.1273 7.75898C30.208 8.16504 30.4087 8.53721 30.7033 8.82687C31.2195 9.34541 31.855 9.60467 32.6098 9.60467C33.0329 9.6111 33.4521 9.52193 33.8362 9.34375C34.6177 8.9733 35.06 8.22522 35.2063 7.39238C35.2096 7.37311 35.2024 7.36045 35.1833 7.36045H33.8428C33.8238 7.35845 33.8065 7.37173 33.8034 7.39073C33.76 7.56946 33.6858 7.73918 33.5842 7.8922C33.3595 8.22247 33.0077 8.36504 32.6197 8.36779C32.0251 8.36779 31.5593 8.00779 31.454 7.39678C31.4243 7.21464 31.406 7.03078 31.3992 6.84632C31.3916 6.61898 31.3877 6.3344 31.3877 5.99421Z" fill="#23AF91"/>
<path d="M17.2398 2.56367C17.2395 2.49661 17.1855 2.44232 17.1187 2.44202H15.9805C15.9137 2.44232 15.8597 2.49661 15.8594 2.56367V9.42348C15.86 9.49033 15.9139 9.54428 15.9805 9.54465H17.1187C17.1853 9.54428 17.2392 9.49033 17.2398 9.42348V7.4099L18.1534 6.31284L20.0297 9.50825C20.0442 9.53181 20.0702 9.54571 20.0977 9.54465H21.4809C21.5445 9.54465 21.556 9.50495 21.5242 9.45046L19.0674 5.26697L21.3214 2.55101C21.3669 2.49596 21.3477 2.44367 21.2765 2.44367H19.7645C19.7461 2.44258 19.7284 2.45085 19.7174 2.46569L17.2398 5.45027V2.56367Z" fill="#23AF91"/>
<path d="M25.5316 8.3677C24.891 8.3677 24.3101 7.77211 24.3101 7.06091V2.56367C24.3098 2.49661 24.2558 2.44232 24.189 2.44202H23.0508C22.984 2.44232 22.93 2.49661 22.9297 2.56367V7.0433C22.9297 8.60936 24.0959 9.60459 25.5316 9.60459C26.9674 9.60459 28.1336 8.60936 28.1336 7.0433V2.56367C28.133 2.49673 28.0791 2.44261 28.0125 2.44202H26.8737C26.8072 2.44262 26.7535 2.49682 26.7532 2.56367V7.06091C26.7532 7.77156 26.1717 8.3677 25.5316 8.3677Z" fill="#23AF91"/>
<path fill-rule="evenodd" clip-rule="evenodd" d="M4.41637 5.99448L7.94995 9.54439L10.1804 7.30403C10.5792 6.94331 11.1893 6.95936 11.5688 7.34054C11.9483 7.72172 11.9643 8.33461 11.6052 8.73522L8.66182 11.6923C8.26645 12.0828 7.63235 12.0828 7.23698 11.6923L2.99044 7.42568V9.96164C2.99044 10.5213 2.53874 10.975 1.98155 10.975C1.42435 10.975 0.972656 10.5213 0.972656 9.96164V2.02403C0.972656 1.46434 1.42435 1.01063 1.98155 1.01063C2.53874 1.01063 2.99044 1.46434 2.99044 2.02403V4.55999L7.23644 0.294485C7.63168 -0.0963714 8.26603 -0.0963714 8.66127 0.294485L11.6068 3.251C11.9659 3.65161 11.95 4.26449 11.5705 4.64568C11.191 5.02686 10.5808 5.0429 10.182 4.68219L7.95159 2.44182L4.41637 5.99448ZM7.95159 4.97999C7.54304 4.97977 7.17459 5.2268 7.0181 5.60587C6.8616 5.98495 6.94787 6.42139 7.23668 6.71165C7.52549 7.0019 7.95995 7.0888 8.33742 6.93181C8.7149 6.77482 8.96103 6.40486 8.96103 5.99448C8.96118 5.72542 8.85491 5.46733 8.6656 5.27697C8.47629 5.08661 8.21946 4.97959 7.95159 4.97944V4.97999Z" fill="#23AF91"/>
</svg>
