<?xml version="1.0" standalone="no"?>
<!DOCTYPE svg PUBLIC "-//W3C//DTD SVG 20010904//EN" "http://www.w3.org/TR/2001/REC-SVG-20010904/DTD/svg10.dtd">
<svg version="1.0" xmlns="http://www.w3.org/2000/svg" width="128.000000pt" height="128.000000pt" viewBox="0 0 128.000000 128.000000" preserveAspectRatio="xMidYMid meet">

    <g transform="translate(0.000000,128.000000) scale(0.100000,-0.100000)" fill="#ffffff" stroke="none">
        <path d="M578 1094 l-247 -184 -166 0 -165 0 0 -265 0 -265 165 0 166 0 247
-189 247 -189 3 319 c1 175 1 463 0 638 l-3 319 -247 -184z m172 -455 c0 -264
-4 -479 -8 -477 -5 1 -88 64 -185 138 l-177 135 1 210 0 210 177 132 c97 73
180 132 185 133 4 0 7 -216 7 -481z m-450 6 l0 -185 -110 0 -110 0 0 185 0
185 110 0 110 0 0 -185z" />
        <path d="M950 795 l-24 -25 62 -63 62 -62 -62 -63 -63 -62 28 -27 27 -27 63
62 63 62 59 -60 59 -60 28 27 28 27 -60 61 -60 61 60 59 60 59 -27 28 -27 28
-61 -60 -61 -60 -59 60 c-33 33 -62 60 -65 60 -4 0 -17 -11 -30 -25z" />
    </g>
</svg>