<svg width="27" height="22" viewBox="0 0 27 22" fill="none" xmlns="http://www.w3.org/2000/svg">
<path d="M22.8716 2.30011C21.1238 1.48237 19.255 0.888079 17.3013 0.549683C17.0613 0.983495 16.781 1.56698 16.5877 2.03114C14.5108 1.7188 12.453 1.7188 10.4143 2.03114C10.2211 1.56698 9.93437 0.983495 9.69228 0.549683C7.73641 0.888079 5.86548 1.48456 4.11772 2.30444C0.592473 7.63154 -0.363163 12.8263 0.114656 17.9474C2.45278 19.6934 4.71871 20.7541 6.9464 21.4482C7.49642 20.6912 7.98698 19.8865 8.40957 19.0384C7.60472 18.7326 6.83384 18.3552 6.10546 17.917C6.2987 17.7738 6.48771 17.6242 6.67033 17.4702C11.113 19.5481 15.94 19.5481 20.3296 17.4702C20.5143 17.6242 20.7033 17.7738 20.8944 17.917C20.1639 18.3573 19.3909 18.7347 18.5861 19.0406C19.0087 19.8865 19.4971 20.6934 20.0493 21.4503C22.2791 20.7562 24.5471 19.6956 26.8852 17.9474C27.4459 12.0108 25.9275 6.8637 22.8716 2.30011ZM9.01482 14.798C7.68119 14.798 6.5875 13.5529 6.5875 12.0368C6.5875 10.5207 7.65783 9.27348 9.01482 9.27348C10.3719 9.27348 11.4655 10.5185 11.4421 12.0368C11.4443 13.5529 10.3719 14.798 9.01482 14.798ZM17.9851 14.798C16.6514 14.798 15.5578 13.5529 15.5578 12.0368C15.5578 10.5207 16.6281 9.27348 17.9851 9.27348C19.3421 9.27348 20.4358 10.5185 20.4124 12.0368C20.4124 13.5529 19.3421 14.798 17.9851 14.798Z" fill="#98A2B3"/>
</svg>
