<svg width="64" height="15" viewBox="0 0 64 15" fill="none" xmlns="http://www.w3.org/2000/svg">
<path fill-rule="evenodd" clip-rule="evenodd" d="M0.250358 0.313811C1.84735 2.27366 3.6008 4.73583 3.88441 5.13407C3.89953 5.1553 3.91048 5.17067 3.917 5.17977C4.06818 5.39107 4.19299 5.54813 4.28777 5.66741L4.28778 5.66743C4.4982 5.93221 4.56063 6.01079 4.43508 6.08296C4.3338 6.14116 4.22933 6.16035 4.12509 6.16035C4.00718 6.16035 3.87433 6.10294 3.77761 6.01017C3.70924 5.94461 3.24142 5.2576 2.60439 4.25817C2.11698 3.49344 1.70907 2.85906 1.69794 2.84844C1.67221 2.82387 1.67265 2.82471 2.5547 4.42047C3.10854 5.4225 3.48739 6.16298 3.48739 6.21035C3.48739 6.30671 3.46138 6.35737 3.34382 6.48996C3.14784 6.71107 3.06022 6.95947 2.99698 7.47353C2.92608 8.0498 2.72672 8.45693 2.17421 9.1536C1.8508 9.56147 1.79788 9.6362 1.71627 9.8006C1.61348 10.0076 1.58521 10.1235 1.57376 10.3849C1.56165 10.6613 1.58523 10.8399 1.66874 11.1041C1.74185 11.3354 1.81816 11.4882 2.01324 11.7937C2.1816 12.0573 2.27854 12.2533 2.27854 12.3299C2.27854 12.3909 2.29005 12.391 2.55093 12.3315C3.17526 12.1889 3.6822 11.9382 3.96732 11.6309C4.14377 11.4407 4.1852 11.3357 4.18654 11.0751C4.18743 10.9047 4.18149 10.869 4.13593 10.7709C4.06175 10.6113 3.9267 10.4786 3.62906 10.2729C3.23906 10.0033 3.07248 9.78627 3.02647 9.4878C2.98873 9.24293 3.03252 9.07013 3.24827 8.61293C3.47157 8.13967 3.52692 7.938 3.56435 7.46093C3.58852 7.15273 3.62201 7.0312 3.70959 6.93367C3.80092 6.83193 3.88314 6.79747 4.10918 6.7662C4.47768 6.71533 4.71233 6.61893 4.90521 6.43921C5.07253 6.28331 5.14255 6.13309 5.15329 5.90695L5.16145 5.73554L5.06795 5.62531C4.72934 5.22611 0.0235916 0 0.0027534 0C-0.00169825 0 0.109728 0.141225 0.250358 0.313811ZM2.46862 10.6977C2.54518 10.5605 2.5045 10.3843 2.37643 10.2982C2.25543 10.2169 2.06747 10.2552 2.06747 10.3612C2.06747 10.3935 2.08516 10.4171 2.12504 10.4379C2.19217 10.4728 2.19705 10.5121 2.14422 10.5923C2.09072 10.6737 2.09504 10.7451 2.1564 10.7937C2.2553 10.872 2.39529 10.8289 2.46862 10.6977ZM4.77299 3.22163C4.62192 3.19794 4.61555 3.19516 4.68664 3.18411C4.82288 3.16293 5.14456 3.1918 5.36625 3.2451C5.88377 3.36948 6.35468 3.68812 6.85735 4.25403L6.99087 4.40437L7.18194 4.37331C7.98677 4.24253 8.80552 4.34647 9.49034 4.66634C9.67874 4.75435 9.97576 4.92952 10.0129 4.97453C10.0246 4.98888 10.0464 5.08123 10.0611 5.17977C10.112 5.5207 10.0865 5.78203 9.98336 5.97721C9.92728 6.08342 9.92415 6.11708 9.96185 6.20798C9.99195 6.28051 10.0759 6.33419 10.1591 6.33408C10.3293 6.33385 10.5124 6.05569 10.5973 5.66865L10.631 5.51491L10.6978 5.5914C11.0641 6.01106 11.3519 6.58337 11.4013 6.99073L11.4141 7.09693L11.3526 7.0004C11.2466 6.83427 11.1402 6.72113 11.0038 6.62991C10.758 6.46547 10.4981 6.40951 9.80987 6.37284C9.18825 6.33972 8.83648 6.28603 8.48765 6.17101C7.89407 5.97535 7.59491 5.71476 6.88985 4.77947C6.57671 4.36404 6.38316 4.13419 6.19063 3.94909C5.75314 3.52851 5.32326 3.30794 4.77299 3.22163ZM10.153 4.14918C10.1687 3.87081 10.2061 3.68719 10.2811 3.51951C10.3108 3.45314 10.3387 3.39881 10.3429 3.39881C10.3472 3.39881 10.3343 3.44781 10.3142 3.50767C10.2597 3.67041 10.2507 3.89299 10.2883 4.15196C10.336 4.48055 10.3632 4.52796 10.7066 4.8829C10.8677 5.04939 11.0551 5.25936 11.123 5.34951L11.2466 5.51342L11.123 5.39628C10.972 5.25303 10.6246 4.97365 10.5479 4.93371C10.4964 4.90693 10.4888 4.90739 10.4571 4.93933C10.4278 4.96876 10.4216 5.01298 10.4176 5.22205C10.4112 5.54789 10.3674 5.75703 10.2613 5.96616C10.204 6.07927 10.1949 6.05513 10.2468 5.92746C10.2856 5.83214 10.2895 5.79023 10.2892 5.4748C10.2886 4.84101 10.2142 4.68865 9.77777 4.42763C9.66729 4.36151 9.48507 4.26615 9.37299 4.21571C9.26098 4.16527 9.17194 4.12133 9.17513 4.11805C9.18752 4.10561 9.61314 4.23122 9.78443 4.29784C10.0392 4.39695 10.0813 4.40979 10.1122 4.39783C10.1329 4.38982 10.143 4.32874 10.153 4.14918ZM4.61108 3.66261C4.57 4.15193 4.75975 4.80649 5.06643 5.23341C5.30417 5.56435 5.6727 5.82151 5.94477 5.84635C6.12291 5.86261 6.17645 5.80622 6.09585 5.68723C5.98397 5.52199 5.84635 5.26759 5.80993 5.15867C5.78731 5.091 5.73815 4.89113 5.70068 4.71451C5.57275 4.11151 5.44701 3.87668 5.15656 3.69832C5.05071 3.63331 4.82468 3.54825 4.69359 3.52407L4.62379 3.51119L4.61108 3.66261ZM9.7811 8.41073C8.34786 7.82727 7.84305 7.3208 7.84305 6.46625C7.84305 6.34049 7.84738 6.2376 7.85258 6.2376C7.85784 6.2376 7.91325 6.2791 7.97578 6.32983C8.26641 6.56553 8.59187 6.6662 9.49287 6.79907C10.023 6.87733 10.3213 6.94047 10.5966 7.0328C11.4713 7.32613 12.0126 7.9214 12.1416 8.73227C12.1791 8.96787 12.1572 9.40967 12.0964 9.64253C12.0483 9.82647 11.9018 10.1579 11.863 10.1707C11.8522 10.1742 11.8416 10.1325 11.8389 10.0757C11.8242 9.7712 11.672 9.4748 11.4165 9.25273C11.1259 9.00027 10.7355 8.79933 9.7811 8.41073ZM8.70569 8.34653C8.7258 8.40713 8.75697 8.54507 8.77488 8.65313C8.8897 9.34393 8.53107 9.90207 7.83346 10.1183C7.75961 10.1412 7.46871 10.1988 7.187 10.2462C6.61676 10.3422 6.36224 10.4102 6.10656 10.5347C5.92524 10.6231 5.70571 10.7553 5.71875 10.7685C5.72295 10.7727 5.76434 10.7627 5.8107 10.7463C6.13314 10.6318 6.49197 10.5725 7.03716 10.5439C7.25353 10.5325 7.49961 10.5144 7.58406 10.5037C8.06975 10.4418 8.4064 10.2926 8.66819 10.0232C8.81384 9.87327 8.90068 9.7336 8.97068 9.53667C9.01503 9.41173 9.02103 9.36533 9.02136 9.144C9.02176 8.91847 9.01636 8.8772 8.96828 8.73847C8.90535 8.5566 8.83109 8.42013 8.73705 8.3134L8.66913 8.23633L8.70569 8.34653ZM9.43193 9.83293C9.24146 9.419 9.19777 9.0194 9.30207 8.64673C9.31325 8.60687 9.33117 8.57427 9.34202 8.57427C9.35281 8.57427 9.3977 8.59887 9.44185 8.62887C9.52956 8.6886 9.70558 8.7892 10.1744 9.04767C10.7595 9.3702 11.0931 9.61993 11.32 9.90533C11.5186 10.1552 11.6416 10.4398 11.7007 10.7869C11.7343 10.9835 11.7146 11.4565 11.6647 11.6545C11.5074 12.2787 11.1418 12.7689 10.6204 13.0551C10.544 13.0969 10.4754 13.1313 10.4679 13.1315C10.4605 13.1317 10.4884 13.0601 10.5298 12.9725C10.7052 12.6017 10.7252 12.241 10.5926 11.8396C10.5113 11.5938 10.3458 11.2939 10.0115 10.7869C9.6228 10.1976 9.5275 10.0407 9.43193 9.83293ZM5.84503 11.1905C5.24224 11.2895 4.58048 11.6121 4.04862 12.0661L3.89028 12.2013L4.02943 12.2233C4.75561 12.3379 4.95115 12.4396 5.45486 12.9643C5.74473 13.2661 5.84263 13.3333 6.08306 13.3954C6.4362 13.4865 6.78429 13.3191 6.9037 13.0005C6.95704 12.8582 6.94992 12.6225 6.88871 12.5042C6.74313 12.2224 6.31899 12.1313 6.11389 12.3377C5.94306 12.5097 5.99283 12.7687 6.20531 12.8132C6.25395 12.8235 6.25256 12.8213 6.19291 12.794C6.09992 12.7515 6.05953 12.6925 6.05901 12.5987C6.05783 12.3788 6.30673 12.2553 6.53829 12.3609C6.70784 12.4383 6.77517 12.5394 6.77517 12.7166C6.77517 12.9895 6.54549 13.1951 6.2782 13.1615C6.13532 13.1435 5.9606 13.0511 5.8669 12.944C5.63116 12.6745 5.72299 12.2491 6.05215 12.0859C6.30272 11.9617 6.63581 11.9923 6.89411 12.1633C7.19087 12.3599 7.31707 12.5395 7.57267 13.1289C7.65591 13.3209 7.763 13.5369 7.81062 13.6091C8.05277 13.9755 8.34287 14.1553 8.6923 14.1553C8.88503 14.1553 9.03002 14.1197 9.21243 14.0276C9.34795 13.9591 9.54009 13.8291 9.52623 13.8151C9.5223 13.8112 9.46609 13.8289 9.4013 13.8544C9.01976 14.0049 8.6319 13.9945 8.40667 13.8278C8.26481 13.7229 8.1504 13.5138 8.09159 13.2523C8.0814 13.2071 8.04784 13.0072 8.01694 12.8081C7.93862 12.3036 7.86343 12.0768 7.68808 11.8165C7.50867 11.5503 7.16376 11.3268 6.77816 11.227C6.53759 11.1647 6.10482 11.1478 5.84503 11.1905ZM5.00079 7.28967C5.05285 7.09527 5.22101 6.90987 5.39401 6.85613C5.50402 6.822 5.7314 6.8438 5.83831 6.89873C6.04551 7.00527 6.19592 7.24787 6.16328 7.423C6.12347 7.63653 5.78098 7.8074 5.38701 7.8102C5.18578 7.8116 5.11146 7.78427 5.03462 7.68053C4.98705 7.61627 4.96903 7.40827 5.00079 7.28967ZM5.78541 6.97487C5.88874 7.03867 5.91531 7.133 5.85456 7.22027C5.81271 7.2804 5.68316 7.33753 5.58848 7.33753C5.44624 7.33753 5.29107 7.2354 5.29107 7.14187C5.29107 6.95393 5.58863 6.85333 5.78541 6.97487ZM36.6666 7.513C36.3452 6.44283 36.8752 5.55516 38.0062 5.26991C38.3305 5.18806 39.7992 5.22499 40.0508 5.32136C40.1432 5.35667 40.1834 5.49221 40.1843 5.77075C40.1849 5.99011 40.2088 6.25654 40.2373 6.36279C40.2806 6.52383 40.2553 6.55552 40.0855 6.55294C39.932 6.55054 39.8391 6.46045 39.7095 6.18792C39.5024 5.75263 39.2517 5.61417 38.6674 5.61254C37.9215 5.61039 37.3758 6.11311 37.4646 6.72053C37.5225 7.1158 37.917 7.50473 38.8023 8.0394C39.6447 8.548 40.1364 8.96627 40.3323 9.341C40.8561 10.3429 40.4088 11.415 39.2417 11.9552C38.6426 12.2325 37.6385 12.2611 36.9325 12.0211L36.4805 11.8674V11.1443C36.4805 10.4895 36.4961 10.4211 36.6452 10.4211C36.7699 10.4211 36.8238 10.5037 36.8675 10.7622C36.9765 11.4051 37.4645 11.7953 38.1596 11.7953C38.8405 11.7953 39.3165 11.4229 39.4988 10.7477C39.5765 10.46 39.5631 10.3539 39.409 10.0366C39.2244 9.65613 38.9066 9.40367 37.827 8.7802C37.2279 8.4342 36.8043 7.9716 36.6666 7.513ZM15.5033 5.69713C15.356 5.69713 15.2985 5.64895 15.2985 5.52535C15.2985 5.36173 15.356 5.35357 16.5103 5.35357C17.5817 5.35357 17.7188 5.36972 17.6943 5.4928C17.6789 5.56941 17.5308 5.67567 17.3651 5.72901L17.0636 5.82597L17.0379 8.0162C17.0207 9.47767 17.0449 10.3207 17.1107 10.5499C17.3061 11.2316 17.9024 11.6236 18.7436 11.6236C19.3293 11.6236 19.6714 11.4865 20.1012 11.0795C20.5635 10.6419 20.6373 10.2261 20.6358 8.065C20.6344 5.93335 20.5973 5.75743 20.14 5.71319C19.9319 5.69301 19.8621 5.64448 19.8621 5.51994C19.8621 5.36465 19.9308 5.35357 20.8954 5.35357C21.8712 5.35357 21.9286 5.36311 21.9286 5.52535C21.9286 5.63117 21.8708 5.69765 21.7779 5.69842C21.3792 5.70194 21.3718 5.73992 21.3181 8.07733C21.2625 10.5047 21.2105 10.7921 20.719 11.3867C20.5773 11.5582 20.2393 11.8073 19.968 11.9402C19.5259 12.1568 19.3852 12.1817 18.6136 12.1803C17.9022 12.1788 17.6777 12.1444 17.322 11.9823C16.8028 11.7457 16.4651 11.4395 16.2162 10.9794C16.0424 10.6582 16.0276 10.4844 15.9874 8.3082C15.9413 5.81722 15.919 5.69713 15.5033 5.69713ZM23.5606 5.69713C23.3638 5.69713 23.3063 5.65831 23.3063 5.52535C23.3063 5.36431 23.3614 5.35401 24.1889 5.36062L25.0715 5.36766L25.4938 5.85449C25.7259 6.12221 26.4827 6.95973 27.1754 7.71553C27.8681 8.4714 28.6634 9.35067 28.9427 9.66953C29.222 9.98847 29.4848 10.2493 29.5269 10.2493C29.57 10.2493 29.5915 9.34853 29.5761 8.1804L29.549 6.11147L29.3074 5.90431C29.1745 5.79033 28.9712 5.69713 28.8554 5.69713C28.7013 5.69713 28.6449 5.65041 28.6449 5.52295C28.6449 5.3552 28.6889 5.34962 29.8288 5.37264C30.7981 5.39222 31.0128 5.41928 31.0128 5.52183C31.0128 5.59493 30.8929 5.67163 30.7249 5.7059C30.5667 5.7382 30.3923 5.80931 30.3375 5.86394C30.2668 5.93445 30.2307 6.8462 30.2132 9.00813L30.1885 12.053H29.939C29.7241 12.053 29.4684 11.811 28.1011 10.3137C27.2276 9.35707 26.2079 8.22013 25.8352 7.7872C25.4625 7.3542 25.1285 6.99667 25.093 6.99273C24.9931 6.98153 25.0172 10.8499 25.1195 11.2171C25.1992 11.5033 25.254 11.5525 25.5926 11.6429C25.8653 11.7157 25.9756 11.7895 25.9756 11.8991C25.9756 12.0398 25.8717 12.053 24.7702 12.053C23.6489 12.053 23.5647 12.0418 23.5647 11.892C23.5647 11.7823 23.6458 11.7148 23.8191 11.6802C24.3449 11.5753 24.3798 11.4089 24.4093 8.8642C24.4258 7.439 24.4015 6.44181 24.3451 6.23301C24.246 5.86583 23.9991 5.69713 23.5606 5.69713ZM32.5893 5.69713C32.4049 5.69713 32.3475 5.65634 32.3475 5.52535C32.3475 5.36122 32.4049 5.35357 33.639 5.35357C34.8732 5.35357 34.9306 5.36122 34.9306 5.52535C34.9306 5.65136 34.8732 5.69713 34.7153 5.69713C34.597 5.69713 34.421 5.77599 34.3244 5.87236C34.1538 6.04251 34.1494 6.12711 34.1738 8.75673C34.1974 11.3237 34.2075 11.4723 34.3658 11.5877C34.4578 11.6547 34.6224 11.7095 34.7318 11.7095C34.8732 11.7095 34.9306 11.759 34.9306 11.8813C34.9306 12.0454 34.8732 12.053 33.639 12.053C32.4342 12.053 32.3475 12.0422 32.3475 11.8923C32.3475 11.7713 32.432 11.7179 32.6886 11.677C33.1981 11.5957 33.2241 11.4293 33.1924 8.46007C33.167 6.08219 33.1561 5.93393 32.9983 5.81893C32.9063 5.75193 32.7223 5.69713 32.5893 5.69713ZM41.5988 5.69713C41.481 5.69713 41.3914 5.63177 41.3635 5.52535C41.3201 5.35925 41.361 5.35357 42.6021 5.35357C43.8282 5.35357 43.8856 5.36122 43.8856 5.52535C43.8856 5.65737 43.8282 5.69713 43.6378 5.69713C43.0957 5.69713 43.1079 5.79539 43.9283 8.0416C44.3458 9.185 44.7513 10.2711 44.8293 10.4552L44.9709 10.7899L45.6286 9.038C46.4028 6.9758 46.5033 6.59443 46.3718 6.21832C46.2802 5.95618 45.9239 5.69713 45.6551 5.69713C45.5791 5.69713 45.5216 5.62327 45.5216 5.52535C45.5216 5.36096 45.5791 5.35357 46.8563 5.35357C48.1335 5.35357 48.1909 5.36096 48.1909 5.52535C48.1909 5.64758 48.1335 5.69713 47.9921 5.69713C47.6301 5.69713 47.4704 5.88971 47.5224 6.26385C47.576 6.64898 49.0569 10.7883 49.1191 10.7263C49.2201 10.6256 50.8602 6.16962 50.8602 5.99595C50.8602 5.78784 50.7142 5.69713 50.3795 5.69713C50.2288 5.69713 50.1713 5.64981 50.1713 5.52535C50.1713 5.36311 50.2288 5.35357 51.2046 5.35357C52.081 5.35357 52.2379 5.37385 52.2379 5.48688C52.2379 5.56023 52.1305 5.65754 51.9993 5.70315C51.7041 5.80579 51.63 5.92294 51.2597 6.87193C51.0971 7.28867 50.5883 8.59293 50.1288 9.77013C49.6694 10.9475 49.2738 11.9621 49.2496 12.0248C49.2255 12.0876 49.0831 12.1389 48.9331 12.1389H48.6606L48.0421 10.5285C47.7019 9.6428 47.2999 8.59347 47.149 8.19667C46.8902 7.51673 46.8685 7.4872 46.7712 7.68127C46.7144 7.79467 46.3057 8.84587 45.8629 10.0173L45.058 12.1473L44.7576 12.1217L44.4572 12.096L43.3114 9.09653C42.6712 7.42073 42.0826 6.00875 41.9774 5.89709C41.8737 5.78707 41.7034 5.69713 41.5988 5.69713ZM58.8158 5.73356C58.8014 5.70093 58.8015 5.58368 58.8015 5.58368C58.8015 5.58368 58.7982 5.54139 58.816 5.51883C58.8336 5.49634 58.8399 5.49574 58.9032 5.48971L58.9038 5.48965C59.1363 5.46752 59.6027 5.43027 59.992 5.41327C60.0276 5.41171 60.0672 5.40991 60.1103 5.40795L60.1112 5.40791L60.1117 5.40789L60.1121 5.40787C60.5405 5.38841 61.3071 5.36239 61.834 5.38875C62.845 5.43931 63.564 5.92849 63.809 6.73687C64.0541 7.5452 63.9245 8.304 63.5905 8.787C63.2565 9.27 62.6948 9.68587 61.7613 9.6588C60.9906 9.63647 60.7844 9.492 60.6196 9.3766C60.5848 9.3522 60.5518 9.32907 60.5158 9.30873V10.3396C60.5239 11.0427 60.5298 11.3803 60.5842 11.5053C60.6574 11.6736 60.8231 11.7773 61.1458 11.8567C61.1458 11.8567 61.2918 11.891 61.3295 11.9275C61.3671 11.9641 61.3671 12.0452 61.3671 12.0452C61.3671 12.0452 61.3748 12.1211 61.3446 12.1597C61.3143 12.1984 61.2559 12.1907 61.2559 12.1907L59.8267 12.1791L58.965 12.1769C58.965 12.1769 58.8746 12.1942 58.8407 12.1578C58.8068 12.1213 58.8099 12.0454 58.8099 12.0454C58.8099 12.0454 58.8174 11.9636 58.8569 11.927C58.8965 11.8903 59.0436 11.8494 59.0436 11.8494C59.3759 11.756 59.52 11.6572 59.5953 11.4711C59.656 11.321 59.6564 11.0427 59.6558 8.77187C59.6552 6.61833 59.6521 6.21661 59.6027 6.10108C59.5297 5.93006 59.3469 5.88475 59.0867 5.82023L59.0865 5.82021C59.035 5.80741 58.9803 5.79387 58.9229 5.77844C58.9229 5.77844 58.8303 5.76619 58.8158 5.73356ZM62.9772 7.4908C62.9772 7.84393 62.971 8.3968 62.5955 8.7502C62.2199 9.1036 61.4805 9.20033 60.9786 9.10193C60.8203 9.07093 60.7299 9.02313 60.6602 8.98627L60.6532 8.9826L60.5247 8.91487L60.5172 7.67413C60.5126 6.89673 60.5207 6.39024 60.539 6.31783C60.5557 5.90792 61.1597 5.85693 61.4549 5.87211C62.7175 5.87211 62.9404 6.93707 62.9772 7.4908ZM54.8509 5.40168C54.8509 5.40168 54.7893 5.42537 54.6958 5.46085L54.3587 5.63517L54.1158 6.24189C53.9824 6.57557 53.7381 7.18813 53.5732 7.60313C53.2727 8.359 53.0742 8.8556 52.8654 9.37393C52.804 9.5264 52.6185 9.99067 52.4532 10.4057C52.288 10.8206 52.1228 11.2155 52.0862 11.2833C52.08 11.2945 52.0736 11.3067 52.0668 11.3195C51.9744 11.4933 51.8138 11.7953 51.5303 11.841C51.5303 11.841 51.3745 11.8563 51.3168 11.9134C51.259 11.9705 51.2646 12.0172 51.2646 12.0172V12.0891C51.2646 12.0891 51.2699 12.124 51.3026 12.1413C51.3353 12.1587 51.3796 12.1597 51.3796 12.1597L52.4166 12.1479H53.4884C53.4884 12.1479 53.5642 12.1568 53.5934 12.1325C53.6226 12.1083 53.6307 12.0723 53.6307 12.0723V11.9965C53.6307 11.9965 53.6158 11.9144 53.5733 11.8823C53.5309 11.8503 53.3718 11.8284 53.3718 11.8284C52.9427 11.7719 52.8689 11.4471 52.9218 11.1549C52.9479 11.0114 53.1203 10.4805 53.3145 9.94593L53.3817 9.7612L54.5047 9.7526C55.1224 9.74787 55.6557 9.75107 55.6898 9.75973C55.7386 9.77207 55.8068 9.9108 56.0072 10.4049C56.3108 11.1536 56.3351 11.2448 56.2679 11.3849C56.2637 11.3934 56.2594 11.4028 56.2547 11.4129C56.1916 11.5484 56.0691 11.8116 55.7605 11.8384C55.7605 11.8384 55.5968 11.8441 55.5561 11.8931C55.5154 11.9421 55.5242 11.9985 55.5242 11.9985V12.0735C55.5242 12.0735 55.5351 12.1174 55.5561 12.1348C55.5771 12.1522 55.6127 12.1478 55.6127 12.1478L56.6321 12.1405L58.0651 12.1404C58.0651 12.1404 58.1213 12.1464 58.1366 12.1248C58.1518 12.1031 58.155 12.0777 58.155 12.0777V11.9781C58.155 11.9781 58.1488 11.9252 58.1212 11.896C58.0937 11.8669 57.9078 11.8361 57.9078 11.8361C57.6705 11.7977 57.5523 11.6016 57.4642 11.4555C57.4418 11.4183 57.4213 11.3843 57.4013 11.357C57.3605 11.3013 57.2148 10.9963 57.1006 10.7029C56.9865 10.4095 56.7291 9.74667 56.5285 9.23007C56.3279 8.71347 56.048 7.9928 55.9065 7.62867C55.765 7.26447 55.4961 6.57153 55.3089 6.08879C55.2782 6.00956 55.2506 5.93839 55.226 5.87469L55.2259 5.8744C55.1004 5.55021 55.0497 5.41939 55.0358 5.40168C54.9907 5.34419 54.8509 5.40168 54.8509 5.40168ZM54.7842 7.3744C54.739 7.26433 54.6594 7.06687 54.6073 6.9356C54.5128 6.697 54.4769 6.64204 54.4476 6.69133C54.439 6.70573 54.3795 6.8688 54.3153 7.05373C53.8997 8.25107 53.7115 8.7902 53.6738 8.8918C53.6501 8.95567 53.6307 9.02147 53.6307 9.03807C53.6307 9.05713 53.9687 9.06827 54.5479 9.06827C55.0523 9.06827 55.465 9.062 55.465 9.05433C55.465 9.04667 55.42 8.9324 55.365 8.80027C55.31 8.66813 55.1753 8.33833 55.0658 8.06733C54.9562 7.79633 54.8295 7.48453 54.7842 7.3744Z" fill="#FF007A"/>
</svg>
